<?xml version="1.0" encoding="utf-8"?>
<!-- Svg Vector Icons : http://www.onlinewebfonts.com/icon -->
<!DOCTYPE svg PUBLIC "-//W3C//DTD SVG 1.1//EN" "http://www.w3.org/Graphics/SVG/1.1/DTD/svg11.dtd">
<svg version="1.1" xmlns="http://www.w3.org/2000/svg" xmlns:xlink="http://www.w3.org/1999/xlink" x="0px" y="0px" viewBox="0 0 256 256" enable-background="new 0 0 256 256" xml:space="preserve">
<metadata> Svg Vector Icons : http://www.onlinewebfonts.com/icon </metadata>
<g><g><path fill="#000000" d="M224.5,56c-1.5-3-3-3-5.9-3c-20.8,0-47.5-22.3-65.3-31.2c-10.4-5.9-17.8-10.4-23.7-11.9H128h-1.5c-5.9,1.5-13.4,5.9-23.7,10.4C84.9,29.3,58.2,51.5,37.5,53c-3,0-4.5,0-5.9,3c-3,1.5-3,4.5-3,7.4c4.5,92,37.1,148.4,95,181.1c1.5,1.5,3,1.5,4.5,1.5s3,0,4.5-1.5c57.9-32.7,90.5-89.1,95-181.1C227.5,60.5,227.5,57.5,224.5,56z M174,107.9l-44.5,44.5l-10.4,10.4l0,0c-1.5,1.5-3,1.5-4.5,0l0,0l-10.4-10.4L82,130.2c-1.5-1.5-1.5-3,0-4.5l10.4-10.4c1.5-1.5,3-1.5,4.5,0l20.8,20.8l41.6-41.6c1.5-1.5,3-1.5,4.5,0L174,105C175.5,105,175.5,106.4,174,107.9z"/></g></g>
</svg>